<svg xmlns="http://www.w3.org/2000/svg" xmlns:xlink="http://www.w3.org/1999/xlink" width="100" zoomAndPan="magnify" viewBox="100" height="100" preserveAspectRatio="xMidYMid meet" version="1.0">
 
  <g fill="#ab9873" fill-opacity="1">
    <g transform="translate(13, 79)">
      <g>
        <path d="M 32.25 -36.609375 L 32.25 -37.078125 C 32.25 -40.492188 31.25 -43.785156 29.25 -46.953125 C 28.082031 -48.816406 27.5 -50.789062 27.5 -52.875 C 27.5 -55.53125 28.21875 -57.5 29.65625 -58.78125 C 31.144531 -60.09375 32.6875 -60.75 34.28125 -60.75 C 35.882812 -60.75 37.429688 -60.09375 38.921875 -58.78125 C 40.359375 -57.5 41.078125 -55.53125 41.078125 -52.875 C 41.078125 -50.789062 40.492188 -48.816406 39.328125 -46.953125 C 37.296875 -43.734375 36.28125 -40.441406 36.28125 -37.078125 L 36.28125 -36.609375 L 36.921875 -36.359375 C 37.753906 -35.992188 38.488281 -35.503906 39.125 -34.890625 L 39.515625 -35.125 C 42.523438 -36.9375 44.898438 -39.46875 46.640625 -42.71875 C 47.671875 -44.664062 49.082031 -46.160156 50.875 -47.203125 C 52.46875 -48.128906 53.957031 -48.59375 55.34375 -48.59375 C 55.9375 -48.59375 56.507812 -48.5 57.0625 -48.3125 C 58.957031 -47.675781 60.304688 -46.664062 61.109375 -45.28125 C 61.640625 -44.34375 61.90625 -43.289062 61.90625 -42.125 C 61.90625 -41.53125 61.835938 -40.914062 61.703125 -40.28125 C 61.328125 -38.382812 59.984375 -36.773438 57.671875 -35.453125 C 56.015625 -34.492188 54.175781 -34.015625 52.15625 -34.015625 L 51.671875 -34.015625 C 51.378906 -34.015625 51.097656 -34.015625 50.828125 -34.015625 C 47.335938 -34.015625 44.257812 -33.238281 41.59375 -31.6875 L 41.125 -31.40625 C 41.226562 -30.90625 41.28125 -30.390625 41.28125 -29.859375 C 41.28125 -29.296875 41.210938 -28.75 41.078125 -28.21875 L 41.5625 -27.9375 C 44.28125 -26.363281 47.367188 -25.578125 50.828125 -25.578125 C 51.117188 -25.578125 51.398438 -25.578125 51.671875 -25.578125 L 52.15625 -25.578125 C 54.175781 -25.578125 56.015625 -25.097656 57.671875 -24.140625 C 59.984375 -22.804688 61.328125 -21.191406 61.703125 -19.296875 C 61.835938 -18.660156 61.90625 -18.050781 61.90625 -17.46875 C 61.90625 -16.289062 61.640625 -15.238281 61.109375 -14.3125 C 60.304688 -12.925781 58.957031 -11.910156 57.0625 -11.265625 C 56.507812 -11.078125 55.9375 -10.984375 55.34375 -10.984375 C 53.957031 -10.984375 52.46875 -11.453125 50.875 -12.390625 C 49.082031 -13.429688 47.671875 -14.921875 46.640625 -16.859375 C 44.847656 -20.222656 42.488281 -22.742188 39.5625 -24.421875 L 39 -24.734375 C 38.28125 -24.066406 37.585938 -23.613281 36.921875 -23.375 L 36.28125 -23.140625 L 36.28125 -22.53125 C 36.28125 -19.15625 37.296875 -15.851562 39.328125 -12.625 C 40.492188 -10.757812 41.078125 -8.789062 41.078125 -6.71875 C 41.078125 -4.050781 40.359375 -2.078125 38.921875 -0.796875 C 37.429688 0.503906 35.882812 1.15625 34.28125 1.15625 C 32.6875 1.15625 31.144531 0.503906 29.65625 -0.796875 C 28.21875 -2.078125 27.5 -4.050781 27.5 -6.71875 C 27.5 -8.789062 28.082031 -10.757812 29.25 -12.625 C 31.300781 -15.851562 32.328125 -19.15625 32.328125 -22.53125 L 32.328125 -23.140625 C 32.085938 -23.222656 31.863281 -23.300781 31.65625 -23.375 C 30.875 -23.71875 30.179688 -24.171875 29.578125 -24.734375 L 29.015625 -24.421875 C 26.078125 -22.742188 23.71875 -20.222656 21.9375 -16.859375 C 20.894531 -14.921875 19.484375 -13.429688 17.703125 -12.390625 C 16.109375 -11.453125 14.617188 -10.984375 13.234375 -10.984375 C 12.640625 -10.984375 12.066406 -11.078125 11.515625 -11.265625 C 9.617188 -11.910156 8.269531 -12.925781 7.46875 -14.3125 C 6.9375 -15.238281 6.671875 -16.289062 6.671875 -17.46875 C 6.671875 -18.050781 6.738281 -18.660156 6.875 -19.296875 C 7.25 -21.191406 8.59375 -22.804688 10.90625 -24.140625 C 12.5625 -25.097656 14.398438 -25.578125 16.421875 -25.578125 L 16.90625 -25.578125 C 17.195312 -25.578125 17.476562 -25.578125 17.75 -25.578125 C 21.257812 -25.578125 24.347656 -26.347656 27.015625 -27.890625 L 27.5 -28.171875 C 27.363281 -28.703125 27.296875 -29.265625 27.296875 -29.859375 C 27.296875 -30.390625 27.347656 -30.90625 27.453125 -31.40625 L 26.96875 -31.6875 C 24.3125 -33.238281 21.238281 -34.015625 17.75 -34.015625 C 17.476562 -34.015625 17.195312 -34.015625 16.90625 -34.015625 L 16.421875 -34.015625 C 14.398438 -34.015625 12.5625 -34.492188 10.90625 -35.453125 C 8.59375 -36.773438 7.25 -38.382812 6.875 -40.28125 C 6.738281 -40.914062 6.671875 -41.53125 6.671875 -42.125 C 6.671875 -43.289062 6.9375 -44.34375 7.46875 -45.28125 C 8.269531 -46.664062 9.617188 -47.675781 11.515625 -48.3125 C 12.066406 -48.5 12.640625 -48.59375 13.234375 -48.59375 C 14.617188 -48.59375 16.109375 -48.128906 17.703125 -47.203125 C 19.484375 -46.160156 20.894531 -44.664062 21.9375 -42.71875 C 23.78125 -39.257812 26.140625 -36.742188 29.015625 -35.171875 L 29.453125 -34.921875 C 30.140625 -35.585938 30.875 -36.066406 31.65625 -36.359375 C 31.863281 -36.441406 32.0625 -36.523438 32.25 -36.609375 Z M 32.25 -36.609375 "/>
      </g>
    </g>
  </g>
</svg>
