<svg xmlns="http://www.w3.org/2000/svg" xmlns:xlink="http://www.w3.org/1999/xlink" width="77" zoomAndPan="magnify" viewBox="0" height="77" preserveAspectRatio="xMidYMid meet" version="1.0" ><g clip-path="url(#241d92145b)"><path fill="#fff9ed" d="M 40.945312 59.8125 C 35.1875 59.8125 29.769531 57.570312 25.703125 53.496094 C 21.625 49.429688 19.386719 44.011719 19.386719 38.253906 C 19.386719 32.5 21.625 27.078125 25.703125 23.011719 C 29.769531 18.9375 35.1875 16.695312 40.945312 16.695312 C 46.699219 16.695312 52.121094 18.9375 56.1875 23.011719 C 60.261719 27.089844 62.5 32.5 62.5 38.253906 C 62.5 44.011719 60.261719 49.429688 56.1875 53.496094 C 52.121094 57.570312 46.699219 59.8125 40.945312 59.8125 Z M 40.945312 17.988281 C 35.53125 17.988281 30.441406 20.101562 26.613281 23.925781 C 22.789062 27.75 20.679688 32.84375 20.679688 38.253906 C 20.679688 43.664062 22.789062 48.757812 26.613281 52.582031 C 30.441406 56.410156 35.53125 58.519531 40.945312 58.519531 C 46.355469 58.519531 51.445312 56.410156 55.273438 52.582031 C 59.097656 48.757812 61.210938 43.664062 61.210938 38.253906 C 61.210938 32.84375 59.097656 27.75 55.273438 23.925781 C 51.445312 20.101562 46.355469 17.988281 40.945312 17.988281 Z M 40.945312 17.988281 " fill-opacity="1" fill-rule="nonzero"/></g><g fill="#fff9ed" fill-opacity="1"><g transform="translate(25.952315, 36.574585)"><g><path d="M 2.277344 0.09375 C 3.34375 0.09375 3.894531 -0.480469 4.03125 -1.027344 C 4.0625 -1.167969 4.015625 -1.328125 3.824219 -1.328125 C 3.785156 -1.328125 3.730469 -1.304688 3.667969 -1.242188 C 3.515625 -1.074219 3.167969 -0.859375 2.757812 -0.859375 C 2.007812 -0.859375 1.660156 -1.546875 1.660156 -2.480469 C 1.660156 -3.074219 1.914062 -3.367188 2.203125 -3.367188 C 2.503906 -3.367188 2.679688 -3.175781 2.820312 -2.8125 C 2.957031 -2.472656 3.128906 -2.292969 3.492188 -2.292969 C 3.800781 -2.292969 3.925781 -2.535156 3.925781 -2.789062 C 3.925781 -3.476562 3.066406 -3.980469 2.195312 -3.980469 C 1.136719 -3.980469 0.15625 -3.136719 0.15625 -1.9375 C 0.15625 -0.75 1.011719 0.09375 2.277344 0.09375 Z M 2.277344 0.09375 "/></g></g></g><g fill="#fff9ed" fill-opacity="1"><g transform="translate(30.147903, 36.574585)"><g><path d="M 1.136719 0.0234375 L 1.628906 0.0234375 C 2.496094 0.0234375 2.625 -0.0859375 2.625 -0.300781 C 2.625 -0.441406 2.535156 -0.503906 2.433594 -0.570312 C 2.117188 -0.757812 2.101562 -0.988281 2.101562 -1.460938 L 2.101562 -2 C 2.101562 -2.734375 2.496094 -3.003906 2.773438 -3.003906 C 3.074219 -3.003906 3.292969 -2.882812 3.359375 -2.339844 L 3.453125 -1.476562 C 3.53125 -0.78125 3.484375 -0.726562 3.214844 -0.5625 C 3.121094 -0.503906 3.042969 -0.417969 3.042969 -0.277344 C 3.042969 -0.0546875 3.238281 0.0234375 3.769531 0.0234375 L 4.621094 0.0234375 C 5.324219 0.0234375 5.4375 -0.101562 5.4375 -0.277344 C 5.4375 -0.425781 5.355469 -0.503906 5.253906 -0.578125 C 5.007812 -0.75 4.976562 -0.804688 4.90625 -1.453125 L 4.78125 -2.566406 C 4.652344 -3.683594 4.046875 -4 3.453125 -4 C 2.410156 -4 2.234375 -3.199219 2.140625 -3.199219 C 2.117188 -3.199219 2.101562 -3.246094 2.101562 -3.460938 L 2.101562 -5.261719 C 2.101562 -5.507812 1.992188 -5.578125 1.722656 -5.578125 C 1.390625 -5.578125 0.871094 -5.390625 0.480469 -5.246094 C 0.261719 -5.167969 0.09375 -5.097656 0.09375 -4.914062 C 0.09375 -4.765625 0.269531 -4.710938 0.433594 -4.667969 C 0.601562 -4.628906 0.640625 -4.457031 0.640625 -4.226562 L 0.640625 -1.453125 C 0.640625 -1.003906 0.632812 -0.734375 0.300781 -0.5625 C 0.199219 -0.503906 0.125 -0.433594 0.125 -0.300781 C 0.125 -0.0859375 0.300781 0.0234375 1.136719 0.0234375 Z M 1.136719 0.0234375 "/></g></g></g><g fill="#fff9ed" fill-opacity="1"><g transform="translate(35.647206, 36.574585)"><g><path d="M 2.261719 0.09375 C 3.359375 0.09375 3.886719 -0.523438 4.03125 -1.027344 C 4.0625 -1.128906 4.039062 -1.328125 3.824219 -1.328125 C 3.777344 -1.328125 3.738281 -1.3125 3.691406 -1.265625 C 3.546875 -1.097656 3.214844 -0.859375 2.75 -0.859375 C 2.132812 -0.859375 1.792969 -1.304688 1.792969 -1.582031 C 1.792969 -1.660156 1.832031 -1.691406 1.960938 -1.707031 L 3.328125 -1.902344 C 3.824219 -1.976562 4.023438 -2.125 4.023438 -2.582031 C 4.023438 -3.144531 3.453125 -3.980469 2.292969 -3.980469 C 1.152344 -3.980469 0.15625 -3.191406 0.15625 -1.960938 C 0.15625 -0.851562 0.957031 0.09375 2.261719 0.09375 Z M 1.847656 -2.324219 C 1.683594 -2.292969 1.621094 -2.300781 1.621094 -2.625 C 1.621094 -3.121094 1.785156 -3.367188 2.109375 -3.367188 C 2.433594 -3.367188 2.664062 -2.945312 2.664062 -2.679688 C 2.664062 -2.535156 2.589844 -2.464844 2.417969 -2.433594 Z M 1.847656 -2.324219 "/></g></g></g><g fill="#fff9ed" fill-opacity="1"><g transform="translate(39.834891, 36.574585)"><g><path d="M 2.226562 0.03125 C 2.582031 0.03125 2.78125 -0.140625 3.105469 -0.585938 C 3.585938 -1.234375 4.125 -2.203125 4.125 -2.914062 C 4.125 -3.167969 4.078125 -3.398438 3.988281 -3.578125 C 3.933594 -3.699219 3.863281 -3.792969 3.777344 -3.863281 C 3.667969 -3.949219 3.539062 -4 3.390625 -4 C 3.269531 -4 3.152344 -3.964844 3.050781 -3.910156 C 2.90625 -3.832031 2.804688 -3.691406 2.804688 -3.492188 C 2.804688 -3.320312 2.835938 -3.128906 3.058594 -2.859375 C 3.222656 -2.65625 3.261719 -2.410156 3.207031 -2.148438 C 3.152344 -1.902344 3.019531 -1.660156 2.84375 -1.398438 C 2.773438 -1.296875 2.6875 -1.265625 2.632812 -1.398438 C 2.441406 -1.839844 2.171875 -2.566406 2.039062 -3.011719 C 1.992188 -3.167969 2.140625 -3.253906 2.277344 -3.328125 C 2.425781 -3.40625 2.496094 -3.523438 2.496094 -3.625 C 2.496094 -3.824219 2.410156 -3.933594 1.675781 -3.933594 L 0.820312 -3.933594 C 0.269531 -3.933594 0.0078125 -3.910156 0.0078125 -3.609375 C 0.0078125 -3.453125 0.0859375 -3.382812 0.191406 -3.3125 C 0.308594 -3.230469 0.386719 -3.152344 0.488281 -2.898438 C 0.835938 -2.054688 1.097656 -1.21875 1.445312 -0.371094 C 1.582031 -0.0546875 1.746094 0.03125 2.164062 0.03125 Z M 2.226562 0.03125 "/></g></g></g><g fill="#fff9ed" fill-opacity="1"><g transform="translate(44.117396, 36.574585)"><g><path d="M 1.144531 0.0546875 L 1.636719 0.0546875 C 2.503906 0.0546875 2.632812 -0.0546875 2.632812 -0.269531 C 2.632812 -0.410156 2.542969 -0.472656 2.441406 -0.539062 C 2.125 -0.726562 2.109375 -0.957031 2.109375 -1.429688 L 2.109375 -1.953125 C 2.109375 -2.503906 2.339844 -2.964844 2.609375 -2.964844 C 2.804688 -2.964844 2.804688 -2.789062 2.804688 -2.695312 C 2.804688 -2.347656 3.074219 -2.203125 3.335938 -2.203125 C 3.785156 -2.203125 4.054688 -2.65625 4.054688 -3.027344 C 4.054688 -3.675781 3.738281 -4 3.246094 -4 C 2.441406 -4 2.226562 -3.199219 2.148438 -3.199219 C 2.109375 -3.199219 2.109375 -3.320312 2.109375 -3.375 L 2.109375 -3.632812 C 2.109375 -3.878906 2 -3.949219 1.730469 -3.949219 C 1.398438 -3.949219 0.878906 -3.777344 0.488281 -3.625 C 0.269531 -3.539062 0.101562 -3.46875 0.101562 -3.285156 C 0.101562 -3.128906 0.285156 -3.082031 0.441406 -3.042969 C 0.617188 -3.003906 0.648438 -2.828125 0.648438 -2.597656 L 0.648438 -1.421875 C 0.648438 -0.972656 0.640625 -0.703125 0.308594 -0.53125 C 0.207031 -0.472656 0.132812 -0.402344 0.132812 -0.269531 C 0.132812 -0.0546875 0.308594 0.0546875 1.144531 0.0546875 Z M 1.144531 0.0546875 "/></g></g></g><g fill="#fff9ed" fill-opacity="1"><g transform="translate(48.21817, 36.574585)"><g><path d="M 2.261719 0.09375 C 3.359375 0.09375 3.886719 -0.523438 4.03125 -1.027344 C 4.0625 -1.128906 4.039062 -1.328125 3.824219 -1.328125 C 3.777344 -1.328125 3.738281 -1.3125 3.691406 -1.265625 C 3.546875 -1.097656 3.214844 -0.859375 2.75 -0.859375 C 2.132812 -0.859375 1.792969 -1.304688 1.792969 -1.582031 C 1.792969 -1.660156 1.832031 -1.691406 1.960938 -1.707031 L 3.328125 -1.902344 C 3.824219 -1.976562 4.023438 -2.125 4.023438 -2.582031 C 4.023438 -3.144531 3.453125 -3.980469 2.292969 -3.980469 C 1.152344 -3.980469 0.15625 -3.191406 0.15625 -1.960938 C 0.15625 -0.851562 0.957031 0.09375 2.261719 0.09375 Z M 1.847656 -2.324219 C 1.683594 -2.292969 1.621094 -2.300781 1.621094 -2.625 C 1.621094 -3.121094 1.785156 -3.367188 2.109375 -3.367188 C 2.433594 -3.367188 2.664062 -2.945312 2.664062 -2.679688 C 2.664062 -2.535156 2.589844 -2.464844 2.417969 -2.433594 Z M 1.847656 -2.324219 "/></g></g></g><g fill="#fff9ed" fill-opacity="1"><g transform="translate(52.405856, 36.574585)"><g><path d="M 2 0.0859375 C 2.828125 0.0859375 3.34375 -0.285156 3.476562 -0.980469 C 3.515625 -1.183594 3.285156 -1.289062 3.136719 -1.128906 C 2.945312 -0.933594 2.703125 -0.886719 2.558594 -0.886719 C 2.25 -0.886719 2.078125 -1.105469 2.078125 -1.484375 L 2.078125 -3.066406 C 2.078125 -3.222656 2.179688 -3.277344 2.300781 -3.277344 L 2.980469 -3.277344 C 3.183594 -3.277344 3.335938 -3.414062 3.335938 -3.675781 C 3.335938 -3.894531 3.269531 -3.902344 3.113281 -3.902344 L 2.25 -3.902344 C 2.09375 -3.902344 2.078125 -3.933594 2.078125 -4.3125 L 2.078125 -4.742188 C 2.078125 -4.96875 2.039062 -5.082031 1.839844 -5.082031 C 1.574219 -5.082031 1.304688 -4.960938 1.050781 -4.78125 C 0.804688 -4.597656 0.578125 -4.371094 0.394531 -4.140625 L 0.246094 -3.949219 C 0.117188 -3.792969 0.0703125 -3.652344 0.0703125 -3.546875 C 0.0703125 -3.421875 0.140625 -3.277344 0.308594 -3.277344 L 0.441406 -3.277344 C 0.578125 -3.277344 0.625 -3.199219 0.625 -3.082031 L 0.625 -1.265625 C 0.625 -0.277344 1.160156 0.0859375 2 0.0859375 Z M 2 0.0859375 "/></g></g></g><g fill="#fff9ed" fill-opacity="1"><g transform="translate(27.19204, 44.475906)"><g><path d="M 2.609375 0.09375 C 3.871094 0.09375 4.765625 -0.871094 4.765625 -2.148438 C 4.765625 -3.351562 4.070312 -4 3.277344 -4 C 2.355469 -4 2.0625 -3.183594 1.984375 -3.183594 C 1.945312 -3.183594 1.9375 -3.222656 1.9375 -3.382812 L 1.9375 -5.261719 C 1.9375 -5.507812 1.824219 -5.578125 1.554688 -5.578125 C 1.226562 -5.578125 0.703125 -5.398438 0.316406 -5.246094 C 0.09375 -5.160156 -0.0703125 -5.089844 -0.0703125 -4.914062 C -0.0703125 -4.75 0.101562 -4.726562 0.269531 -4.667969 C 0.433594 -4.613281 0.472656 -4.457031 0.472656 -4.226562 L 0.472656 -1.683594 C 0.472656 -0.933594 0.441406 -0.570312 0.386719 -0.214844 C 0.363281 -0.0625 0.441406 0.0078125 0.5625 0.0078125 C 0.941406 0.0078125 1.074219 -0.371094 1.265625 -0.371094 C 1.4375 -0.371094 1.613281 0.09375 2.609375 0.09375 Z M 2.648438 -0.523438 C 2.226562 -0.523438 1.9375 -0.964844 1.9375 -2 L 1.9375 -2.078125 C 1.9375 -2.625 2.269531 -3.003906 2.609375 -3.003906 C 3.082031 -3.003906 3.246094 -2.417969 3.246094 -1.515625 C 3.246094 -0.78125 2.980469 -0.523438 2.648438 -0.523438 Z M 2.648438 -0.523438 "/></g></g></g><g fill="#fff9ed" fill-opacity="1"><g transform="translate(32.114547, 44.475906)"><g><path d="M 1.460938 0.09375 C 2.664062 0.09375 2.773438 -0.5625 2.882812 -0.5625 C 2.914062 -0.5625 2.945312 -0.523438 2.964844 -0.472656 C 3.089844 -0.148438 3.328125 0.0625 3.832031 0.0625 C 4.402344 0.0625 4.8125 -0.386719 4.8125 -0.765625 C 4.8125 -0.949219 4.710938 -0.988281 4.628906 -0.988281 C 4.542969 -0.988281 4.503906 -0.917969 4.355469 -0.917969 C 4.234375 -0.917969 4.164062 -0.964844 4.125 -1.257812 L 3.941406 -2.617188 C 3.832031 -3.460938 3.53125 -4 2.355469 -4 C 1.304688 -4 0.410156 -3.539062 0.410156 -2.875 C 0.410156 -2.589844 0.640625 -2.441406 0.84375 -2.441406 C 1.199219 -2.441406 1.398438 -2.597656 1.476562 -2.921875 C 1.554688 -3.230469 1.777344 -3.367188 2.007812 -3.367188 C 2.332031 -3.367188 2.425781 -3.167969 2.464844 -2.859375 L 2.480469 -2.726562 C 2.511719 -2.472656 2.402344 -2.417969 1.914062 -2.378906 C 0.886719 -2.300781 0.117188 -1.824219 0.117188 -1.042969 C 0.117188 -0.457031 0.441406 0.09375 1.460938 0.09375 Z M 2.132812 -0.695312 C 1.816406 -0.695312 1.597656 -0.886719 1.597656 -1.289062 C 1.597656 -1.644531 1.753906 -1.914062 2.203125 -1.914062 C 2.503906 -1.914062 2.609375 -1.863281 2.640625 -1.628906 L 2.648438 -1.574219 C 2.726562 -1.019531 2.464844 -0.695312 2.132812 -0.695312 Z M 2.132812 -0.695312 "/></g></g></g><g fill="#fff9ed" fill-opacity="1"><g transform="translate(36.879029, 44.475906)"><g><path d="M 0.789062 0.03125 C 1.265625 0.0234375 1.5 0.0234375 2.007812 0.03125 C 2.535156 0.03125 2.671875 -0.0546875 2.671875 -0.269531 C 2.671875 -0.410156 2.589844 -0.480469 2.472656 -0.546875 C 2.125 -0.726562 2.109375 -0.957031 2.109375 -1.121094 L 2.109375 -1.183594 C 2.109375 -1.40625 2.132812 -1.5 2.21875 -1.574219 L 2.285156 -1.628906 C 2.402344 -1.730469 2.472656 -1.722656 2.582031 -1.554688 L 3.074219 -0.8125 C 3.269531 -0.511719 3.019531 -0.464844 3.019531 -0.269531 C 3.019531 -0.0703125 3.152344 0.03125 3.730469 0.03125 C 4.054688 0.0234375 4.304688 0.0234375 4.621094 0.03125 C 4.9375 0.03125 5.175781 -0.0703125 5.175781 -0.300781 C 5.175781 -0.449219 5.050781 -0.5625 4.9375 -0.609375 C 4.796875 -0.671875 4.742188 -0.710938 4.542969 -1.003906 L 3.523438 -2.550781 C 3.445312 -2.679688 3.4375 -2.734375 3.554688 -2.851562 L 3.777344 -3.066406 C 3.925781 -3.214844 4.101562 -3.277344 4.394531 -3.304688 C 4.558594 -3.320312 4.703125 -3.382812 4.703125 -3.617188 C 4.703125 -3.910156 4.457031 -3.910156 4.21875 -3.910156 L 3.175781 -3.910156 C 2.929688 -3.910156 2.679688 -3.863281 2.679688 -3.652344 C 2.679688 -3.53125 2.75 -3.453125 2.835938 -3.4375 C 2.921875 -3.421875 2.972656 -3.390625 2.972656 -3.335938 C 2.972656 -3.285156 2.945312 -3.214844 2.882812 -3.152344 L 2.363281 -2.632812 C 2.21875 -2.488281 2.109375 -2.503906 2.109375 -2.757812 L 2.109375 -5.261719 C 2.109375 -5.507812 2 -5.578125 1.730469 -5.578125 C 1.398438 -5.578125 0.878906 -5.40625 0.488281 -5.253906 C 0.269531 -5.167969 0.101562 -5.097656 0.101562 -4.914062 C 0.101562 -4.75 0.277344 -4.703125 0.441406 -4.667969 C 0.609375 -4.636719 0.648438 -4.457031 0.648438 -4.226562 L 0.648438 -1.4375 C 0.648438 -0.964844 0.632812 -0.703125 0.277344 -0.53125 C 0.175781 -0.480469 0.09375 -0.410156 0.09375 -0.269531 C 0.09375 -0.0546875 0.269531 0.03125 0.789062 0.03125 Z M 0.789062 0.03125 "/></g></g></g><g fill="#fff9ed" fill-opacity="1"><g transform="translate(42.157096, 44.475906)"><g><path d="M 2.261719 0.09375 C 3.359375 0.09375 3.886719 -0.523438 4.03125 -1.027344 C 4.0625 -1.128906 4.039062 -1.328125 3.824219 -1.328125 C 3.777344 -1.328125 3.738281 -1.3125 3.691406 -1.265625 C 3.546875 -1.097656 3.214844 -0.859375 2.75 -0.859375 C 2.132812 -0.859375 1.792969 -1.304688 1.792969 -1.582031 C 1.792969 -1.660156 1.832031 -1.691406 1.960938 -1.707031 L 3.328125 -1.902344 C 3.824219 -1.976562 4.023438 -2.125 4.023438 -2.582031 C 4.023438 -3.144531 3.453125 -3.980469 2.292969 -3.980469 C 1.152344 -3.980469 0.15625 -3.191406 0.15625 -1.960938 C 0.15625 -0.851562 0.957031 0.09375 2.261719 0.09375 Z M 1.847656 -2.324219 C 1.683594 -2.292969 1.621094 -2.300781 1.621094 -2.625 C 1.621094 -3.121094 1.785156 -3.367188 2.109375 -3.367188 C 2.433594 -3.367188 2.664062 -2.945312 2.664062 -2.679688 C 2.664062 -2.535156 2.589844 -2.464844 2.417969 -2.433594 Z M 1.847656 -2.324219 "/></g></g></g><g fill="#fff9ed" fill-opacity="1"><g transform="translate(46.344782, 44.475906)"><g><path d="M 1.144531 0.0546875 L 1.636719 0.0546875 C 2.503906 0.0546875 2.632812 -0.0546875 2.632812 -0.269531 C 2.632812 -0.410156 2.542969 -0.472656 2.441406 -0.539062 C 2.125 -0.726562 2.109375 -0.957031 2.109375 -1.429688 L 2.109375 -1.953125 C 2.109375 -2.503906 2.339844 -2.964844 2.609375 -2.964844 C 2.804688 -2.964844 2.804688 -2.789062 2.804688 -2.695312 C 2.804688 -2.347656 3.074219 -2.203125 3.335938 -2.203125 C 3.785156 -2.203125 4.054688 -2.65625 4.054688 -3.027344 C 4.054688 -3.675781 3.738281 -4 3.246094 -4 C 2.441406 -4 2.226562 -3.199219 2.148438 -3.199219 C 2.109375 -3.199219 2.109375 -3.320312 2.109375 -3.375 L 2.109375 -3.632812 C 2.109375 -3.878906 2 -3.949219 1.730469 -3.949219 C 1.398438 -3.949219 0.878906 -3.777344 0.488281 -3.625 C 0.269531 -3.539062 0.101562 -3.46875 0.101562 -3.285156 C 0.101562 -3.128906 0.285156 -3.082031 0.441406 -3.042969 C 0.617188 -3.003906 0.648438 -2.828125 0.648438 -2.597656 L 0.648438 -1.421875 C 0.648438 -0.972656 0.640625 -0.703125 0.308594 -0.53125 C 0.207031 -0.472656 0.132812 -0.402344 0.132812 -0.269531 C 0.132812 -0.0546875 0.308594 0.0546875 1.144531 0.0546875 Z M 1.144531 0.0546875 "/></g></g></g><g fill="#fff9ed" fill-opacity="1"><g transform="translate(50.445556, 44.475906)"><g><path d="M 0.820312 1.398438 C 1.539062 1.398438 2.226562 0.664062 2.851562 -0.183594 C 3.160156 -0.601562 3.398438 -0.988281 3.578125 -1.328125 C 4.007812 -2.132812 4.125 -2.710938 4.125 -2.921875 C 4.125 -3.136719 4.085938 -3.382812 3.988281 -3.585938 C 3.933594 -3.699219 3.863281 -3.800781 3.761719 -3.871094 C 3.667969 -3.941406 3.546875 -3.988281 3.398438 -3.988281 C 3.222656 -3.988281 3.089844 -3.949219 2.996094 -3.886719 C 2.84375 -3.785156 2.773438 -3.625 2.773438 -3.476562 C 2.773438 -3.269531 2.859375 -3.058594 3.066406 -2.835938 C 3.183594 -2.710938 3.304688 -2.582031 3.191406 -2.179688 C 3.136719 -1.992188 3.035156 -1.746094 2.851562 -1.414062 C 2.789062 -1.296875 2.679688 -1.273438 2.617188 -1.414062 C 2.410156 -1.878906 2.179688 -2.527344 2.054688 -2.921875 C 1.992188 -3.113281 2.117188 -3.214844 2.339844 -3.375 C 2.394531 -3.414062 2.488281 -3.484375 2.488281 -3.625 C 2.488281 -3.824219 2.402344 -3.933594 1.785156 -3.933594 L 0.695312 -3.933594 C 0.199219 -3.933594 0 -3.871094 0 -3.617188 C 0 -3.476562 0.0859375 -3.375 0.191406 -3.3125 C 0.308594 -3.238281 0.417969 -3.113281 0.496094 -2.875 C 0.742188 -2.164062 1.089844 -1.207031 1.484375 -0.214844 C 1.691406 0.308594 1.707031 0.363281 1.589844 0.496094 C 1.453125 0.648438 1.304688 0.773438 1.191406 0.773438 C 1.058594 0.773438 1.011719 0.464844 0.933594 0.316406 C 0.828125 0.117188 0.65625 -0.0078125 0.394531 -0.0078125 C 0.09375 -0.0078125 -0.148438 0.238281 -0.148438 0.570312 C -0.148438 1.066406 0.222656 1.398438 0.820312 1.398438 Z M 0.820312 1.398438 "/></g></g></g></svg>